<svg width="81" height="81" viewBox="0 0 81 81" fill="none" xmlns="http://www.w3.org/2000/svg">
<circle cx="40.5" cy="40.5" r="37.5" fill="#FFF060" stroke="black" stroke-width="6"/>
<path d="M14 40.5C14 45.939 15.5249 51.2558 18.3818 55.7782C21.2387 60.3005 25.2994 63.8253 30.0502 65.9067C34.8011 67.9881 40.0288 68.5327 45.0723 67.4716C50.1159 66.4105 54.7486 63.7914 58.3848 59.9454C62.0209 56.0995 64.4972 51.1995 65.5004 45.865C66.5036 40.5305 65.9887 35.0012 64.0209 29.9762C62.053 24.9512 58.7205 20.6563 54.4448 17.6346C50.1691 14.6128 45.1423 13 40 13V18.2471C44.1611 18.2471 48.2288 19.5522 51.6887 21.9974C55.1486 24.4426 57.8452 27.918 59.4376 31.9842C61.03 36.0504 61.4467 40.5247 60.6349 44.8413C59.8231 49.158 57.8193 53.1231 54.8769 56.2352C51.9345 59.3473 48.1857 61.4667 44.1045 62.3253C40.0233 63.184 35.7931 62.7433 31.9487 61.059C28.1043 59.3747 24.8184 56.5225 22.5066 52.8631C20.1948 49.2036 18.9609 44.9012 18.9609 40.5L14 40.5Z" fill="#858585"/>
<circle cx="40.5" cy="40.5" r="8" stroke="#858585"/>
</svg>
