<svg width="81" height="81" viewBox="0 0 81 81" fill="none" xmlns="http://www.w3.org/2000/svg">
<circle cx="40.5" cy="40.5" r="37.5" fill="#FF8C00" stroke="black" stroke-width="6"/>
<path d="M15 41.5C15 46.939 16.5249 52.2558 19.3818 56.7782C22.2387 61.3005 26.2994 64.8253 31.0502 66.9067C35.8011 68.9881 41.0288 69.5327 46.0723 68.4716C51.1159 67.4105 55.7486 64.7914 59.3848 60.9454C63.0209 57.0995 65.4972 52.1995 66.5004 46.865C67.5036 41.5305 66.9887 36.0012 65.0209 30.9762C63.053 25.9512 59.7205 21.6563 55.4448 18.6346C51.1691 15.6128 46.1423 14 41 14V19.2471C45.1611 19.2471 49.2288 20.5522 52.6887 22.9974C56.1486 25.4426 58.8452 28.918 60.4376 32.9842C62.03 37.0504 62.4467 41.5247 61.6349 45.8413C60.8231 50.158 58.8193 54.1231 55.8769 57.2352C52.9345 60.3473 49.1857 62.4667 45.1045 63.3253C41.0233 64.184 36.7931 63.7433 32.9487 62.059C29.1043 60.3747 25.8184 57.5225 23.5066 53.8631C21.1948 50.2036 19.9609 45.9012 19.9609 41.5L15 41.5Z" fill="#858585"/>
<circle cx="40.5" cy="40.5" r="8" stroke="#858585"/>
</svg>
