<svg width="81" height="81" viewBox="0 0 81 81" fill="none" xmlns="http://www.w3.org/2000/svg">
<circle cx="40.5" cy="40.5" r="37.5" fill="#FFE702" stroke="black" stroke-width="6"/>
<path d="M14 39.5C14 44.939 15.5249 50.2558 18.3818 54.7782C21.2387 59.3005 25.2994 62.8253 30.0502 64.9067C34.8011 66.9881 40.0288 67.5327 45.0723 66.4716C50.1159 65.4105 54.7486 62.7914 58.3848 58.9454C62.0209 55.0995 64.4972 50.1995 65.5004 44.865C66.5036 39.5305 65.9887 34.0012 64.0209 28.9762C62.053 23.9512 58.7205 19.6563 54.4448 16.6346C50.1691 13.6128 45.1423 12 40 12V17.2471C44.1611 17.2471 48.2288 18.5522 51.6887 20.9974C55.1486 23.4426 57.8452 26.918 59.4376 30.9842C61.03 35.0504 61.4467 39.5247 60.6349 43.8413C59.8231 48.158 57.8193 52.1231 54.8769 55.2352C51.9345 58.3473 48.1857 60.4667 44.1045 61.3253C40.0233 62.184 35.7931 61.7433 31.9487 60.059C28.1043 58.3747 24.8184 55.5225 22.5066 51.8631C20.1948 48.2036 18.9609 43.9012 18.9609 39.5L14 39.5Z" fill="#858585"/>
<circle cx="40.5" cy="40.5" r="8" stroke="#858585"/>
</svg>
