<svg width="81" height="81" viewBox="0 0 81 81" fill="none" xmlns="http://www.w3.org/2000/svg">
<circle cx="40.5" cy="40.5" r="37.5" fill="#FF8C00" stroke="black" stroke-width="6"/>
<path d="M14 41.5C14 46.939 15.5249 52.2558 18.3818 56.7782C21.2387 61.3005 25.2994 64.8253 30.0502 66.9067C34.8011 68.9881 40.0288 69.5327 45.0723 68.4716C50.1159 67.4105 54.7486 64.7914 58.3848 60.9454C62.0209 57.0995 64.4972 52.1995 65.5004 46.865C66.5036 41.5305 65.9887 36.0012 64.0209 30.9762C62.053 25.9512 58.7205 21.6563 54.4448 18.6346C50.1691 15.6128 45.1423 14 40 14V19.2471C44.1611 19.2471 48.2288 20.5522 51.6887 22.9974C55.1486 25.4426 57.8452 28.918 59.4376 32.9842C61.03 37.0504 61.4467 41.5247 60.6349 45.8413C59.8231 50.158 57.8193 54.1231 54.8769 57.2352C51.9345 60.3473 48.1857 62.4667 44.1045 63.3253C40.0233 64.184 35.7931 63.7433 31.9487 62.059C28.1043 60.3747 24.8184 57.5225 22.5066 53.8631C20.1948 50.2036 18.9609 45.9012 18.9609 41.5L14 41.5Z" fill="#858585"/>
<circle cx="40.5" cy="40.5" r="8" stroke="#858585"/>
</svg>
