<svg width="81" height="81" viewBox="0 0 81 81" fill="none" xmlns="http://www.w3.org/2000/svg">
<circle cx="40.5" cy="40.5" r="37.5" fill="#FFB55B" stroke="black" stroke-width="6"/>
<path d="M40.5 67C43.98 67 47.426 66.3146 50.6411 64.9828C53.8562 63.6511 56.7776 61.6991 59.2383 59.2383C61.6991 56.7776 63.6511 53.8562 64.9828 50.6411C66.3146 47.426 67 43.98 67 40.5C67 37.02 66.3146 33.574 64.9828 30.3589C63.6511 27.1438 61.6991 24.2224 59.2383 21.7617C56.7776 19.3009 53.8562 17.3489 50.6411 16.0172C47.426 14.6854 43.98 14 40.5 14V19.0563C43.316 19.0563 46.1045 19.6109 48.7062 20.6886C51.3078 21.7662 53.6718 23.3458 55.663 25.337C57.6542 27.3282 59.2338 29.6922 60.3114 32.2938C61.3891 34.8955 61.9437 37.684 61.9437 40.5C61.9437 43.316 61.3891 46.1045 60.3114 48.7062C59.2338 51.3078 57.6542 53.6718 55.663 55.663C53.6718 57.6542 51.3078 59.2338 48.7062 60.3114C46.1045 61.3891 43.316 61.9437 40.5 61.9437L40.5 67Z" fill="#858585"/>
<path d="M40.5 67C43.98 67 47.426 66.3146 50.6411 64.9828C53.8562 63.6511 56.7776 61.6991 59.2383 59.2383C61.6991 56.7776 63.6511 53.8562 64.9828 50.6411C66.3146 47.426 67 43.98 67 40.5C67 37.02 66.3146 33.574 64.9828 30.3589C63.6511 27.1438 61.6991 24.2224 59.2383 21.7617C56.7776 19.3009 53.8562 17.3489 50.6411 16.0172C47.426 14.6854 43.98 14 40.5 14V19.0563C43.316 19.0563 46.1045 19.6109 48.7062 20.6886C51.3078 21.7662 53.6718 23.3458 55.663 25.337C57.6542 27.3282 59.2338 29.6922 60.3114 32.2938C61.3891 34.8955 61.9437 37.684 61.9437 40.5C61.9437 43.316 61.3891 46.1045 60.3114 48.7062C59.2338 51.3078 57.6542 53.6718 55.663 55.663C53.6718 57.6542 51.3078 59.2338 48.7062 60.3114C46.1045 61.3891 43.316 61.9437 40.5 61.9437L40.5 67Z" fill="#858585"/>
<circle cx="40.5" cy="40.5" r="8.5" fill="#858585"/>
<circle cx="40.5" cy="40.5" r="8.5" fill="#858585"/>
</svg>
