<svg width="81" height="81" viewBox="0 0 81 81" fill="none" xmlns="http://www.w3.org/2000/svg">
<circle cx="40.5" cy="40.5" r="37.5" fill="#F40400" stroke="black" stroke-width="6"/>
<path d="M15 40.5C15 45.939 16.5249 51.2558 19.3818 55.7782C22.2387 60.3005 26.2994 63.8253 31.0502 65.9067C35.8011 67.9881 41.0288 68.5327 46.0723 67.4716C51.1159 66.4105 55.7486 63.7914 59.3848 59.9454C63.0209 56.0995 65.4972 51.1995 66.5004 45.865C67.5036 40.5305 66.9887 35.0012 65.0209 29.9762C63.053 24.9512 59.7205 20.6563 55.4448 17.6346C51.1691 14.6128 46.1423 13 41 13V18.2471C45.1611 18.2471 49.2288 19.5522 52.6887 21.9974C56.1486 24.4426 58.8452 27.918 60.4376 31.9842C62.03 36.0504 62.4467 40.5247 61.6349 44.8413C60.8231 49.158 58.8193 53.1231 55.8769 56.2352C52.9345 59.3473 49.1857 61.4667 45.1045 62.3253C41.0233 63.184 36.7931 62.7433 32.9487 61.059C29.1043 59.3747 25.8184 56.5225 23.5066 52.8631C21.1948 49.2036 19.9609 44.9012 19.9609 40.5L15 40.5Z" fill="#858585"/>
<circle cx="40.5" cy="40.5" r="8" stroke="#858585"/>
</svg>
