<svg width="81" height="81" viewBox="0 0 81 81" fill="none" xmlns="http://www.w3.org/2000/svg">
<circle cx="40.5" cy="40.5" r="39" fill="#FFB55B" stroke="black" stroke-width="3"/>
<path d="M40.5 68C43.98 68 47.426 67.3146 50.6411 65.9828C53.8562 64.6511 56.7776 62.6991 59.2383 60.2383C61.6991 57.7776 63.6511 54.8562 64.9828 51.6411C66.3146 48.426 67 44.98 67 41.5C67 38.02 66.3146 34.574 64.9828 31.3589C63.6511 28.1438 61.6991 25.2224 59.2383 22.7617C56.7776 20.3009 53.8562 18.3489 50.6411 17.0172C47.426 15.6854 43.98 15 40.5 15V20.0563C43.316 20.0563 46.1045 20.6109 48.7062 21.6886C51.3078 22.7662 53.6718 24.3458 55.663 26.337C57.6542 28.3282 59.2338 30.6922 60.3114 33.2938C61.3891 35.8955 61.9437 38.684 61.9437 41.5C61.9437 44.316 61.3891 47.1045 60.3114 49.7062C59.2338 52.3078 57.6542 54.6718 55.663 56.663C53.6718 58.6542 51.3078 60.2338 48.7062 61.3114C46.1045 62.3891 43.316 62.9437 40.5 62.9437L40.5 68Z" fill="#858585"/>
<circle cx="40.5" cy="40.5" r="8" stroke="#858585"/>
</svg>
