<svg width="81" height="81" viewBox="0 0 81 81" fill="none" xmlns="http://www.w3.org/2000/svg">
<circle cx="40.5" cy="40.5" r="39" fill="#FF8C00" stroke="black" stroke-width="3"/>
<path d="M67 40.5C67 55.6878 55.1355 68 40.5 68C25.8645 68 14 55.6878 14 40.5C14 25.3122 25.8645 13 40.5 13C55.1355 13 67 25.3122 67 40.5ZM19.0563 40.5C19.0563 52.7899 28.657 62.7529 40.5 62.7529C52.343 62.7529 61.9437 52.7899 61.9437 40.5C61.9437 28.2101 52.343 18.2471 40.5 18.2471C28.657 18.2471 19.0563 28.2101 19.0563 40.5Z" fill="#858585"/>
<circle cx="40.5" cy="40.5" r="8.5" fill="#858585"/>
</svg>
