<svg width="973" height="152" viewBox="0 0 973 152" fill="none" xmlns="http://www.w3.org/2000/svg">
<path d="M0.84 148.5V146.58L4.68 145.236C9.032 143.828 11.208 140.18 11.208 134.292V35.988C11.208 33.428 10.888 31.38 10.248 29.844C9.736 28.308 8.264 27.028 5.832 26.004L0.84 23.7V21.78H37.896L73.416 114.708L106.824 21.78H144.648V23.7L141.576 24.852C139.144 25.748 137.48 27.028 136.584 28.692C135.688 30.228 135.24 32.276 135.24 34.836V135.252C135.24 137.812 135.56 139.796 136.2 141.204C136.84 142.612 138.376 143.828 140.808 144.852L144.648 146.58V148.5H96.84V146.58L100.872 144.852C103.304 143.828 104.84 142.612 105.48 141.204C106.12 139.796 106.44 137.812 106.44 135.252V92.052L106.824 37.14L66.696 148.5H57.096L15.24 38.484L15.816 86.292V134.676C15.816 137.492 16.2 139.796 16.968 141.588C17.864 143.252 19.528 144.468 21.96 145.236L26.184 146.58V148.5H0.84ZM195.845 53.268C204.165 53.268 211.269 54.996 217.157 58.452C223.045 61.78 227.525 66.388 230.597 72.276C233.797 78.036 235.397 84.628 235.397 92.052C235.397 93.46 235.333 94.932 235.205 96.468C235.077 97.876 234.821 99.156 234.437 100.308H177.221C177.349 114.132 179.781 124.116 184.517 130.26C189.381 136.276 196.549 139.284 206.021 139.284C212.421 139.284 217.605 138.26 221.573 136.212C225.541 134.164 229.253 131.156 232.709 127.188L234.629 128.916C230.661 135.956 225.349 141.46 218.693 145.428C212.165 149.396 204.293 151.38 195.077 151.38C185.989 151.38 177.925 149.46 170.885 145.62C163.845 141.652 158.341 136.02 154.373 128.724C150.405 121.428 148.421 112.724 148.421 102.612C148.421 92.116 150.725 83.22 155.333 75.924C159.941 68.5 165.829 62.868 172.997 59.028C180.293 55.188 187.909 53.268 195.845 53.268ZM195.269 57.108C191.557 57.108 188.357 58.26 185.669 60.564C183.109 62.74 181.061 66.708 179.525 72.468C178.117 78.1 177.349 86.1 177.221 96.468H210.053C211.333 82.516 210.821 72.468 208.517 66.324C206.213 60.18 201.797 57.108 195.269 57.108ZM242.541 148.5V146.58L244.845 145.812C249.453 144.276 251.757 141.076 251.757 136.212V33.492C251.757 30.932 251.245 29.012 250.221 27.732C249.197 26.324 247.405 25.3 244.845 24.66L242.349 24.084V22.164L277.485 13.908L279.789 15.636L279.021 42.516V108.18C279.021 112.916 279.021 117.652 279.021 122.388C279.149 126.996 279.213 131.604 279.213 136.212C279.213 138.772 279.725 140.884 280.749 142.548C281.773 144.084 283.501 145.236 285.933 146.004L288.429 146.58V148.5H242.541ZM345.479 151.38C335.751 151.38 327.303 149.396 320.135 145.428C312.967 141.332 307.399 135.572 303.431 128.148C299.591 120.724 297.671 112.02 297.671 102.036C297.671 92.052 299.719 83.412 303.815 76.116C308.039 68.82 313.735 63.188 320.903 59.22C328.199 55.252 336.391 53.268 345.479 53.268C354.567 53.268 362.695 55.252 369.863 59.22C377.031 63.06 382.663 68.628 386.759 75.924C390.983 83.22 393.095 91.924 393.095 102.036C393.095 112.148 391.111 120.916 387.143 128.34C383.303 135.636 377.799 141.332 370.631 145.428C363.591 149.396 355.207 151.38 345.479 151.38ZM345.479 147.54C349.959 147.54 353.543 146.26 356.231 143.7C358.919 141.14 360.839 136.596 361.991 130.068C363.271 123.54 363.911 114.324 363.911 102.42C363.911 90.388 363.271 81.108 361.991 74.58C360.839 68.052 358.919 63.508 356.231 60.948C353.543 58.388 349.959 57.108 345.479 57.108C340.999 57.108 337.351 58.388 334.535 60.948C331.847 63.508 329.863 68.052 328.583 74.58C327.431 81.108 326.855 90.388 326.855 102.42C326.855 114.324 327.431 123.54 328.583 130.068C329.863 136.596 331.847 141.14 334.535 143.7C337.351 146.26 340.999 147.54 345.479 147.54ZM401.528 148.5V146.58L404.216 145.812C406.648 145.172 408.312 144.084 409.208 142.548C410.232 141.012 410.808 138.964 410.936 136.404V76.308C410.936 73.492 410.488 71.444 409.592 70.164C408.696 68.756 406.968 67.796 404.408 67.284L401.528 66.516V64.596L434.36 53.46L436.28 55.38L437.816 68.436C442.04 64.212 446.84 60.628 452.216 57.684C457.72 54.74 463.416 53.268 469.304 53.268C475.448 53.268 480.376 54.548 484.088 57.108C487.8 59.54 490.616 63.38 492.536 68.628C497.528 63.892 502.904 60.18 508.664 57.492C514.552 54.676 520.248 53.268 525.752 53.268C534.84 53.268 541.496 55.444 545.72 59.796C550.072 64.148 552.248 70.996 552.248 80.34V136.596C552.248 141.588 554.552 144.724 559.16 146.004L561.272 146.58V148.5H516.92V146.58L518.84 146.004C521.272 145.236 522.936 144.084 523.832 142.548C524.856 141.012 525.368 138.964 525.368 136.404V77.652C525.368 72.276 524.408 68.628 522.488 66.708C520.568 64.66 517.496 63.636 513.272 63.636C509.944 63.636 506.68 64.404 503.479 65.94C500.408 67.348 497.144 69.524 493.688 72.468C494.327 74.516 494.712 76.756 494.84 79.188C495.096 81.62 495.224 84.18 495.224 86.868V136.596C495.352 141.588 497.656 144.724 502.136 146.004L503.864 146.58V148.5H459.32V146.58L462.008 145.812C464.44 145.044 466.104 143.956 467 142.548C468.024 141.012 468.536 138.964 468.536 136.404V77.844C468.536 72.724 467.576 69.076 465.656 66.9C463.864 64.724 460.728 63.636 456.248 63.636C453.304 63.636 450.36 64.404 447.416 65.94C444.472 67.348 441.4 69.46 438.2 72.276V136.596C438.2 141.588 440.44 144.724 444.92 146.004L446.648 146.58V148.5H401.528ZM595.685 151.38C588.261 151.38 581.989 149.268 576.869 145.044C571.877 140.82 569.381 134.74 569.381 126.804C569.381 120.788 572.453 115.284 578.597 110.292C584.741 105.172 594.405 101.332 607.589 98.772C609.637 98.388 611.941 98.004 614.5 97.62C617.061 97.108 619.749 96.596 622.565 96.084V80.916C622.565 72.212 621.477 66.132 619.301 62.676C617.253 59.092 613.989 57.3 609.509 57.3C606.437 57.3 604.005 58.324 602.213 60.372C600.421 62.292 599.269 65.684 598.757 70.548L598.373 72.66C598.117 78.164 596.773 82.196 594.341 84.756C591.909 87.316 588.901 88.596 585.317 88.596C581.989 88.596 579.237 87.572 577.061 85.524C574.885 83.476 573.797 80.724 573.797 77.268C573.797 72.02 575.589 67.604 579.173 64.02C582.885 60.436 587.749 57.748 593.765 55.956C599.781 54.164 606.309 53.268 613.349 53.268C624.741 53.268 633.509 56.084 639.653 61.716C645.925 67.22 649.061 76.244 649.061 88.788V131.22C649.061 136.98 651.749 139.86 657.125 139.86H661.349L663.077 141.396C660.645 144.468 657.957 146.836 655.013 148.5C652.197 150.164 648.165 150.996 642.917 150.996C637.285 150.996 632.805 149.716 629.477 147.156C626.277 144.468 624.165 140.948 623.141 136.596C619.301 140.692 615.333 144.212 611.237 147.156C607.269 149.972 602.085 151.38 595.685 151.38ZM607.397 139.668C609.957 139.668 612.325 139.092 614.5 137.94C616.805 136.66 619.493 134.74 622.565 132.18V99.924C621.285 100.18 620.005 100.436 618.725 100.692C617.445 100.948 615.973 101.204 614.309 101.46C608.421 102.996 603.685 105.62 600.101 109.332C596.645 112.916 594.917 117.78 594.917 123.924C594.917 129.172 596.133 133.14 598.565 135.828C600.997 138.388 603.941 139.668 607.397 139.668ZM666.653 148.5V146.58L669.341 145.812C673.821 144.532 676.061 141.396 676.061 136.404V76.308C676.061 73.492 675.613 71.444 674.717 70.164C673.821 68.756 672.093 67.796 669.533 67.284L666.653 66.516V64.596L699.485 53.46L701.405 55.38L702.941 66.9C707.421 62.932 712.477 59.668 718.109 57.108C723.741 54.548 729.309 53.268 734.813 53.268C743.261 53.268 749.725 55.572 754.205 60.18C758.813 64.788 761.117 71.828 761.117 81.3V136.596C761.117 141.588 763.549 144.724 768.413 146.004L770.141 146.58V148.5H724.829V146.58L727.325 145.812C731.805 144.404 734.045 141.268 734.045 136.404V75.156C734.045 66.964 729.949 62.868 721.757 62.868C716.125 62.868 709.981 65.684 703.325 71.316V136.596C703.325 141.588 705.565 144.724 710.045 146.004L711.773 146.58V148.5H666.653ZM778.037 148.5V146.58L780.725 145.812C783.285 145.044 785.013 143.892 785.909 142.356C786.805 140.82 787.253 138.772 787.253 136.212C787.253 131.732 787.253 126.932 787.253 121.812C787.381 116.564 787.445 112.02 787.445 108.18V98.964C787.445 94.996 787.381 91.284 787.253 87.828C787.253 84.244 787.253 80.34 787.253 76.116C787.125 73.428 786.613 71.444 785.717 70.164C784.949 68.756 783.285 67.796 780.725 67.284L778.037 66.708V64.788L813.173 53.46L815.093 55.38L814.517 82.644V136.404C814.645 138.964 815.157 141.012 816.053 142.548C816.949 144.084 818.613 145.236 821.045 146.004L822.965 146.58V148.5H778.037ZM788.981 38.484C790.773 35.156 792.821 31.444 795.125 27.348C797.429 23.124 800.181 18.004 803.381 11.988C805.557 7.89199 807.669 4.94799 809.717 3.15599C811.765 1.236 814.133 0.275997 816.821 0.275997C819.253 0.275997 821.365 1.10799 823.156 2.77199C824.949 4.30799 825.845 6.22799 825.845 8.53199C825.845 10.964 825.013 13.268 823.349 15.444C821.685 17.492 818.869 19.924 814.901 22.74C809.397 26.58 804.789 29.972 801.077 32.916C797.365 35.732 794.037 38.228 791.093 40.404L788.981 38.484ZM859.497 151.38C852.073 151.38 845.801 149.268 840.681 145.044C835.689 140.82 833.193 134.74 833.193 126.804C833.193 120.788 836.265 115.284 842.409 110.292C848.553 105.172 858.217 101.332 871.401 98.772C873.449 98.388 875.753 98.004 878.313 97.62C880.873 97.108 883.561 96.596 886.377 96.084V80.916C886.377 72.212 885.289 66.132 883.113 62.676C881.065 59.092 877.801 57.3 873.321 57.3C870.249 57.3 867.817 58.324 866.025 60.372C864.233 62.292 863.081 65.684 862.569 70.548L862.185 72.66C861.929 78.164 860.585 82.196 858.153 84.756C855.721 87.316 852.713 88.596 849.129 88.596C845.801 88.596 843.049 87.572 840.873 85.524C838.697 83.476 837.609 80.724 837.609 77.268C837.609 72.02 839.401 67.604 842.985 64.02C846.697 60.436 851.561 57.748 857.577 55.956C863.593 54.164 870.121 53.268 877.161 53.268C888.553 53.268 897.321 56.084 903.465 61.716C909.737 67.22 912.873 76.244 912.873 88.788V131.22C912.873 136.98 915.561 139.86 920.937 139.86H925.161L926.889 141.396C924.457 144.468 921.769 146.836 918.825 148.5C916.009 150.164 911.977 150.996 906.729 150.996C901.097 150.996 896.617 149.716 893.289 147.156C890.089 144.468 887.977 140.948 886.953 136.596C883.113 140.692 879.145 144.212 875.049 147.156C871.081 149.972 865.897 151.38 859.497 151.38ZM871.209 139.668C873.769 139.668 876.137 139.092 878.313 137.94C880.617 136.66 883.305 134.74 886.377 132.18V99.924C885.097 100.18 883.817 100.436 882.537 100.692C881.257 100.948 879.785 101.204 878.121 101.46C872.233 102.996 867.497 105.62 863.913 109.332C860.457 112.916 858.729 117.78 858.729 123.924C858.729 129.172 859.945 133.14 862.377 135.828C864.809 138.388 867.753 139.668 871.209 139.668ZM955.8 151.38C951.192 151.38 947.288 149.78 944.088 146.58C940.888 143.38 939.288 139.54 939.288 135.06C939.288 130.58 940.888 126.676 944.088 123.348C947.288 120.02 951.192 118.356 955.8 118.356C960.408 118.356 964.312 120.02 967.512 123.348C970.712 126.676 972.312 130.58 972.312 135.06C972.312 139.54 970.712 143.38 967.512 146.58C964.312 149.78 960.408 151.38 955.8 151.38Z" fill="white"/>
</svg>
